# xmcd CD database file
#
# Track frame offsets:
#	165
#	13252
#	26757
#	41200
#	58705
#	71782
#	88815
#	103260
#	113377
#	126877
#	139240
#	154495
#	162955
#	177440
#
# Disc length: 2524 seconds
#
# Revision: 1
# Processed by: cddbd v1.5.2PL0 Copyright (c) Steve Scherf et al.
# Submitted via: CDex 1.70beta2
#
DISCID=ce09da0e
DTITLE=The Special Consensus - Hey, Y'All
DYEAR=1991
DGENRE=Bluegrass
TTITLE0=Hey, Y'All
TTITLE1=When The Walls Come Tumbling Down
TTITLE2=That Old Moonlight
TTITLE3=The Three Bells
TTITLE4=lola
TTITLE5=The Leavin' Tree
TTITLE6=Missin' the Misses
TTITLE7=I'm Gone, Long Gone
TTITLE8=14 Carat Mind
TTITLE9=Wild Turkey Tracks
TTITLE10=Whisperin' Pines
TTITLE11=I Can't Sit Down
TTITLE12=Strawberry Point
TTITLE13=Viva Las Vegas
EXTD=YEAR: 1991
EXTT0=
EXTT1=
EXTT2=
EXTT3=
EXTT4=
EXTT5=
EXTT6=
EXTT7=
EXTT8=
EXTT9=
EXTT10=
EXTT11=
EXTT12=
EXTT13=
PLAYORDER=
